<svg xmlns="http://www.w3.org/2000/svg" viewBox="0 0 40 40"><defs><style>.cls-1{fill:#fff;}</style></defs><g><g><path class="cls-1" d="M20,0A20,20,0,1,0,40,20,20,20,0,0,0,20,0Zm0,37.17A17.17,17.17,0,1,1,37.17,20,17.17,17.17,0,0,1,20,37.17Z"/><path class="cls-1" d="M29,13.24l-2.37-2.37a.11.11,0,0,0-.15,0L20.07,17.3a.1.1,0,0,1-.14,0L13.5,10.87a.11.11,0,0,0-.15,0L11,13.24a.11.11,0,0,0,0,.15l6.43,6.43a.1.1,0,0,1,0,.14L11,26.39a.11.11,0,0,0,0,.15l2.37,2.37a.11.11,0,0,0,.15,0l6.43-6.43a.1.1,0,0,1,.14,0l6.43,6.43a.11.11,0,0,0,.15,0L29,26.54a.11.11,0,0,0,0-.15L22.59,20a.1.1,0,0,1,0-.14L29,13.39A.11.11,0,0,0,29,13.24Z"/></g></g></svg>
