<svg xmlns="http://www.w3.org/2000/svg" viewBox="0 0 40 40"><defs><style>.cls-1,.cls-2{fill:#fff;}.cls-2{fill-rule:evenodd;}</style></defs><g><g><path class="cls-1" d="M20,0A20,20,0,1,0,40,20,20,20,0,0,0,20,0Zm0,37.17A17.17,17.17,0,1,1,37.17,20,17.17,17.17,0,0,1,20,37.17Z"/><path class="cls-2" d="M18.77,18.27c.24-.62-.07-.93-.34-.93-1.26,0-2.9,3-3.51,3a.49.49,0,0,1-.45-.45c0-.62,1.5-2.06,2-2.5a7.5,7.5,0,0,1,5.11-2.3c1.46,0,3,.89,1.8,4.22L20.88,26a6.64,6.64,0,0,0-.58,1.92.44.44,0,0,0,.41.48c1,0,2.9-2.92,3.37-2.92a.49.49,0,0,1,.41.52c0,1-4,5.24-7.43,5.24-1.22,0-2.08-.58-2.08-1.88a17.56,17.56,0,0,1,1.4-5.05l2.39-6Zm1.84-6.76a2.74,2.74,0,0,1,2.67-2.74,2.18,2.18,0,0,1,2.25,2.33,2.7,2.7,0,0,1-2.71,2.74,2.14,2.14,0,0,1-2.21-2.33Z"/></g></g></svg>
